<?xml version="1.0" encoding="UTF-8" standalone="no"?>
<!-- Created with Inkscape (http://www.inkscape.org/) -->

<svg
   width="847"
   height="847"
   viewBox="0 0 224.10208 224.10208"
   version="1.1"
   id="svg1"
   xml:space="preserve"
   xmlns:xlink="http://www.w3.org/1999/xlink"
   xmlns="http://www.w3.org/2000/svg"
   xmlns:svg="http://www.w3.org/2000/svg"
   xmlns:rdf="http://www.w3.org/1999/02/22-rdf-syntax-ns#"
   xmlns:cc="http://creativecommons.org/ns#"
   xmlns:dc="http://purl.org/dc/elements/1.1/"><defs
     id="defs1"><linearGradient
       id="linearGradient7"><stop
         style="stop-color:#e7dbc3;stop-opacity:1;"
         offset="0"
         id="stop7" /><stop
         style="stop-color:#e7dbc3;stop-opacity:1;"
         offset="0.0962944"
         id="stop30" /><stop
         style="stop-color:#f0d637;stop-opacity:1;"
         offset="0.0962944"
         id="stop24" /><stop
         style="stop-color:#f0d637;stop-opacity:1;"
         offset="0.0962944"
         id="stop31" /><stop
         style="stop-color:#f0d637;stop-opacity:1;"
         offset="0.24724841"
         id="stop33" /><stop
         style="stop-color:#ed8e30;stop-opacity:1;"
         offset="0.24724841"
         id="stop25" /><stop
         style="stop-color:#ed8e30;stop-opacity:1;"
         offset="0.24724841"
         id="stop34" /><stop
         style="stop-color:#ed8e30;stop-opacity:1;"
         offset="0.39715505"
         id="stop35" /><stop
         style="stop-color:#ea7831;stop-opacity:1;"
         offset="0.39715505"
         id="stop26" /><stop
         style="stop-color:#ea7831;stop-opacity:1;"
         offset="0.39715505"
         id="stop36" /><stop
         style="stop-color:#ea7831;stop-opacity:1;"
         offset="0.54838699"
         id="stop37" /><stop
         style="stop-color:#e75e28;stop-opacity:1;"
         offset="0.54838699"
         id="stop27" /><stop
         style="stop-color:#e75e28;stop-opacity:1;"
         offset="0.54838699"
         id="stop38" /><stop
         style="stop-color:#e75e28;stop-opacity:1;"
         offset="0.69673783"
         id="stop39" /><stop
         style="stop-color:#e6472a;stop-opacity:1;"
         offset="0.69673783"
         id="stop28" /><stop
         style="stop-color:#e6472a;stop-opacity:1;"
         offset="0.69673783"
         id="stop40" /><stop
         style="stop-color:#e6472a;stop-opacity:1;"
         offset="0.84605724"
         id="stop41" /><stop
         style="stop-color:#e4456b;stop-opacity:1;"
         offset="0.84605724"
         id="stop29" /><stop
         style="stop-color:#e4456b;stop-opacity:1"
         offset="0.84605724"
         id="stop42" /><stop
         style="stop-color:#e4456b;stop-opacity:1;"
         offset="1"
         id="stop43" /><stop
         style="stop-color:#e4456b;stop-opacity:1;"
         offset="1"
         id="stop8" /></linearGradient><linearGradient
       xlink:href="#linearGradient7"
       id="linearGradient2"
       x1="81.062782"
       y1="53.801361"
       x2="175.83186"
       y2="205.46361"
       gradientUnits="userSpaceOnUse"
       gradientTransform="translate(-5.1709598,0.01418601)" /></defs><metadata
     id="metadata1"><rdf:RDF><cc:Work
         rdf:about=""><dc:format>image/svg+xml</dc:format><dc:type
           rdf:resource="http://purl.org/dc/dcmitype/StillImage" /></cc:Work></rdf:RDF></metadata><g
     id="layer1"><path
       style="fill:url(#linearGradient2);stroke-width:1.11438"
       d="m 131.21185,224.00602 -3.83297,0.0658 -1.11026,-0.27542 -1.11024,-0.2754 -1.1011,-0.56753 -1.10107,-0.5675 -0.94229,-0.98409 -0.94229,-0.98407 -0.7826,-1.71264 -0.78258,-1.71264 -0.15597,-1.71991 -0.15596,-1.71989 3.71475,-0.21426 3.71473,-0.21426 0.45116,0.17312 0.45113,0.17311 v 0.6281 0.62809 l 0.49239,1.03762 0.49238,1.03761 0.90812,0.55378 0.90814,0.55378 0.80617,10e-4 0.80617,0.001 0.92605,-0.82742 0.92604,-0.82743 v -0.85135 -0.85133 l -0.91463,-0.8172 -0.91461,-0.81722 -1.70213,-0.46576 -1.70213,-0.46575 -2.01335,-0.75897 -2.01335,-0.75896 -1.22244,-0.93239 -1.22244,-0.9324 -0.875,-1.24496 -0.87498,-1.24496 -0.12547,-2.62387 -0.12544,-2.62387 0.72564,-1.57651 0.72563,-1.57653 0.97454,-0.94637 0.97456,-0.94639 1.35667,-0.67192 1.35668,-0.67193 4.27524,-0.003 4.27525,-0.003 1.37323,0.52994 1.37324,0.52994 1.33183,1.42387 1.33186,1.42385 0.46451,1.56414 0.4645,1.56413 v 0.94936 0.94936 l -3.31701,0.20696 -3.31699,0.20698 -0.71969,-0.10421 -0.71969,-0.10418 -0.23029,-0.89377 -0.23028,-0.89376 -0.60613,-0.65061 -0.60612,-0.65061 -0.78224,-0.19631 -0.78222,-0.19632 -0.75755,0.42307 -0.75754,0.4231 -0.0909,0.92945 -0.0909,0.92946 0.62256,0.3332 0.62258,0.33319 3.09527,0.86912 3.09526,0.86914 1.69798,0.85715 1.69799,0.85714 1.0463,1.15812 1.04629,1.15814 0.51963,1.3606 0.51961,1.36059 -0.12908,2.73881 -0.1291,2.73879 -0.76564,1.47422 -0.76564,1.47423 -1.13114,1.09113 -1.13114,1.0911 -1.47423,0.67012 -1.47422,0.67013 z m 26.68344,0.0169 -3.68555,0.0764 -1.82788,-0.59372 -1.82789,-0.59373 -1.26799,-0.95893 -1.26797,-0.95895 -1.19261,-1.77197 -1.19261,-1.77198 -0.57645,-1.75934 -0.57647,-1.75934 v -4.71753 -4.7175 l 0.56659,-1.72797 0.56659,-1.72795 1.11317,-1.72227 1.11315,-1.72229 1.41612,-1.04654 1.41612,-1.04655 1.99944,-0.62081 1.99945,-0.62082 3.30777,0.12863 3.30775,0.1286 1.6811,0.65588 1.68108,0.65588 1.43758,1.29249 1.43756,1.2925 0.92808,1.74124 0.92807,1.74126 0.44529,1.88905 0.44527,1.88904 v 3.53813 3.53814 l -0.44527,1.88906 -0.44529,1.88905 -0.91855,1.72342 -0.91858,1.7234 -1.30747,1.20519 -1.30746,1.20517 -1.67328,0.77972 -1.6733,0.77969 z m -0.29484,-7.13517 0.44226,-0.10865 0.73712,-0.20395 0.73711,-0.20394 0.80294,-0.7516 0.80294,-0.75159 0.47906,-1.44232 0.47906,-1.4423 0.0138,-2.71161 0.0138,-2.71164 -0.39676,-1.29484 -0.39675,-1.29485 -0.90251,-0.95692 -0.90251,-0.95696 -1.10222,-0.30434 -1.10223,-0.30433 -1.10221,0.30433 -1.10223,0.30434 -0.91555,0.97078 -0.91555,0.97077 -0.38521,1.37583 -0.3852,1.37584 v 2.46395 2.46398 l 0.37035,1.32282 0.37037,1.32282 0.77952,0.92365 0.77954,0.92366 1.17939,0.41286 1.17936,0.41286 z m -101.652801,6.55586 -10.97785,0.0774 0.005,-0.51958 0.005,-0.51957 12.471055,-38.47722 12.47104,-38.47724 h 11.88942 11.88948 l 12.484436,38.47724 12.48445,38.47722 0.006,0.51598 0.006,0.51599 H 107.49849 96.315334 l -0.44197,-1.54794 -0.44195,-1.54793 -1.24765,-4.79466 -1.24763,-4.79463 -11.36617,0.0772 -11.36617,0.0771 -1.63879,6.19174 -1.63879,6.19173 z m 25.668935,-30.00408 h 6.76417 l -0.17595,-0.66341 -0.17596,-0.6634 -3.16353,-12.19806 -3.16353,-12.19806 -0.1005,0.30149 -0.10049,0.30148 -3.32418,12.55997 -3.32419,12.55999 z m 87.503866,-5.60205 h -11.47787 l -0.46334,-0.46333 -0.46332,-0.46333 v -6.65301 -6.65301 l 4.49638,0.14538 4.49639,0.14537 2.65359,-0.70688 2.65361,-0.70687 1.20166,-0.57921 1.20165,-0.57924 1.15711,-0.9867 1.15709,-0.98671 1.438,-0.63354 1.43798,-0.63352 h 0.80175 0.80174 l 0.19274,3.58443 0.19274,3.58442 v 6.29287 6.29288 z m -23.75605,-15.39738 -2.35876,-0.05 -2.06392,-0.0884 -2.06389,-0.0884 -4.71754,-0.45592 -4.71751,-0.45591 -4.12783,-0.72755 -4.12781,-0.72753 -3.2433,-0.99921 -3.24329,-0.99923 -0.0943,-0.62019 -0.0942,-0.62021 0.38912,-0.37075 0.38913,-0.37075 1.47423,-0.37391 1.47422,-0.3739 1.89868,-0.9225 1.89868,-0.92247 3.55594,-3.47202 3.55596,-3.47202 -5.74948,0.0454 -5.74946,0.0454 -4.78482,-0.66021 -4.7848,-0.66019 -3.56814,-1.02702 -3.56814,-1.02702 h -0.12383 -0.12385 l 0.002,-0.6634 0.002,-0.66341 0.95624,-0.623 0.95622,-0.62298 3.68557,-1.91675 3.68555,-1.91676 2.80102,-1.69693 2.80103,-1.69693 3.24329,-2.1412 3.2433,-2.14122 3.24328,-2.44147 3.24329,-2.44149 2.03981,-1.79504 2.03979,-1.79505 9.60656,-0.008 9.60657,-0.008 1.18191,-0.23989 1.18191,-0.23987 3.2174,13.368 3.2174,13.36803 0.25836,0.95825 0.25835,0.95824 h 0.22535 0.22534 l 8.81146,-9.58245 8.81148,-9.58245 h 0.67919 0.67922 v 10.90987 10.90986 l -1.80001,1.32507 -1.8,1.32509 -2.47034,1.49216 -2.47034,1.49216 -2.43737,1.13026 -2.43738,1.13028 -2.33633,0.79543 -2.33633,0.79546 -2.97087,0.57717 -2.97087,0.57718 -4.42267,0.27361 -4.42267,0.27362 z m 17.1961,-19.69312 -0.78942,0.004 -0.5489,-0.69782 -0.54892,-0.69782 -3.64022,-15.73977 -3.64022,-15.73979 -0.0564,-0.0717 -0.0565,-0.0717 -10.88668,1.75038 -10.8867,1.75035 -3.09586,0.76891 -3.09588,0.76891 -2.94844,0.44832 -2.94844,0.44832 -5.60205,0.007 -5.60206,0.007 -2.94844,-0.45446 -2.94845,-0.45444 -1.54793,-0.33504 -1.547906,-0.33505 v -0.67638 -0.67637 l 1.447456,-0.62268 1.44749,-0.6227 2.01692,-0.71368 2.01695,-0.71366 1.03197,-0.21058 1.03194,-0.21058 3.24329,-1.11205 3.2433,-1.11202 1.17938,-0.5051 1.17938,-0.50513 4.42267,-2.20973 4.42267,-2.20973 2.50618,-1.49028 2.50619,-1.49026 3.36779,-2.38611 3.36781,-2.3861 2.0135,-1.89153 2.0135,-1.89152 -0.11066,-0.11065 -0.11065,-0.11069 -4.53355,0.76659 -4.53355,0.76658 -4.76074,1.00241 -4.76072,1.00242 -3.64234,0.91478 -3.64234,0.91478 -6.634,1.91767 -6.63401,1.91768 -3.390696,1.13147 -3.3907,1.1315 -2.80104,1.03096 -2.80102,1.03096 -3.53813,1.37963 -3.53814,1.37964 -6.48658,3.19943 -6.48658,3.19941 -3.27684,1.8932 -3.27684,1.89319 -4.68397,3.11693 -4.683975,3.11693 -1.18505,0.8336 -1.18506,0.83359 -3.13895,2.43246 -3.13894,2.43249 h -0.90949 -0.90949 l 0.0189,-5.82319 0.0188,-5.82319 4.77237,-3.1387 4.77238,-3.1387 4.864945,-2.73254 4.86494,-2.73254 4.12782,-1.9738 4.12783,-1.97379 0.68562,-0.21639 0.68562,-0.21639 -0.12007,-0.12007 -0.12006,-0.12008 -3.14855,0.8841 -3.14855,0.88411 h -0.43917 -0.43916 l 0.007,-0.6634 0.007,-0.66341 1.54098,-0.7026 1.54099,-0.70261 2.80102,-1.27428 2.80103,-1.27428 2.47296,-0.70813 2.47297,-0.70814 -4.51521,-2.25362 -4.5152,-2.25362 h -0.39023 -0.39023 v -0.73713 -0.73709 h 0.57878 0.57877 l 1.41143,0.55273 1.41142,0.55275 3.68556,1.05142 3.68556,1.0514 2.1193,0.57927 2.1193,0.57929 -2.84263,-3.73138 -2.84263,-3.73141 -2.15141,-2.696739 -2.1514,-2.696774 v -0.620148 -0.620238 h 0.63557 0.63557 l 0.91237,0.695771 0.91236,0.695759 1.91649,0.967154 1.91649,0.967153 2.76229,1.594546 2.76228,1.594546 0.0713,-0.08792 0.0713,-0.08792 -0.25849,-2.506182 -0.2585,-2.506181 -0.8797,-7.971507 -0.87969,-7.971504 v -0.799925 -0.800124 l 0.6634,0.0068 0.6634,0.0068 2.6536,4.637004 2.6536,4.637003 3.83297,5.709414 3.83298,5.709417 0.58969,0.835377 0.589686,0.835391 0.47179,0.123762 0.47178,0.123752 1.52954,-4.752067 1.52952,-4.752069 0.72333,-3.243288 0.72332,-3.243291 0.002,-0.515979 0.002,-0.515979 h 0.68331 0.68331 l -0.11133,5.675761 -0.11133,5.675764 0.23939,1.763842 0.2394,1.763852 3.07818,-3.827761 3.07819,-3.827763 2.30214,-3.516855 2.30214,-3.516858 v -0.242385 -0.242413 h 0.73712 0.73711 v 0.548456 0.548456 l -1.21397,2.621124 -1.21395,2.621128 -1.56313,4.01511 -1.56314,4.01511 -0.98006,1.881788 -0.98006,1.881776 -0.10041,0.221125 -0.1004,0.221137 0.39312,-0.0022 0.39313,-0.0022 0.73712,-1.089267 0.7371,-1.089266 3.39072,-3.559209 3.39071,-3.559209 1.16626,-1.541246 1.16625,-1.541245 h 0.67652 0.67652 v 0.612002 0.612003 l -1.78556,3.502298 -1.78559,3.502298 -1.28574,1.430076 -1.28576,1.430064 2.85019,-0.52166 2.85021,-0.521672 4.42267,-0.618533 4.42267,-0.618545 4.12783,-0.415003 4.12782,-0.415003 3.39071,-0.01314 3.39071,-0.01314 2.28505,-2.642893 2.28505,-2.642893 v -0.246923 -0.246934 l 1.84278,-2.050882 1.84277,-2.050871 1.30279,-2.057448 1.30278,-2.057445 2.17252,-3.312456 2.17254,-3.312455 0.55941,-0.299392 0.55944,-0.299393 h 2.62158 2.62159 l 0.60333,0.663401 0.60333,0.663402 0.84157,1.3268 0.84158,1.326801 3.50882,3.832981 3.50883,3.83298 0.55229,0.489529 0.55229,0.489528 v 24.097542 24.0975 l -0.4327,0.32737 -0.43268,0.32733 -3.85441,5.15979 -3.85443,5.15977 -4.33709,4.05013 -4.3371,4.05012 z m 17.16682,-70.758786 h -0.87942 l -3.33369,-3.906693 -3.33369,-3.906691 -2.3148,-2.727314 -2.3148,-2.727314 h -0.27373 -0.27373 l -5.51233,5.047592 -5.51231,5.047593 -0.68261,0.259613 -0.68259,0.259612 h -0.57049 -0.57051 v -0.561345 -0.561365 l 0.9922,-1.755367 0.99219,-1.755365 1.18465,-2.474496 1.18464,-2.474495 1.47742,-3.980403 1.47742,-3.980403 0.2187,-0.726739 0.21871,-0.726738 -1.46656,1.758695 -1.46655,1.758695 -2.59831,2.456024 -2.5983,2.456025 -2.09314,1.484141 -2.09315,1.484141 -4.42267,2.182975 -4.42268,2.182975 -1.69747,0.305067 -1.69748,0.305066 -1.5458,-0.08905 -1.54582,-0.08905 -0.0917,-0.793965 -0.0917,-0.793965 0.9762,-0.496772 0.97621,-0.496771 2.79099,-1.923042 2.79103,-1.923043 2.23191,-1.846513 2.23191,-1.846514 2.93788,-3.334785 2.93788,-3.334784 1.31993,-1.618102 1.31995,-1.618104 2.47073,-3.697098 2.47073,-3.697097 2.31651,-4.669091 2.31652,-4.669089 1.75054,-4.471095 1.75055,-4.471097 1.10126,-3.538135 1.10124,-3.538137 0.38063,-0.737111 0.38063,-0.737111 1.78711,-5.636211 1.78713,-5.636213 0.9098,-2.1771622 0.90978,-2.1771728 0.9785,-2.8010237 0.97847,-2.8010253 0.21084,-0.51597849 0.21085,-0.5159783 h 0.72214 0.72215 l 0.64681,1.40051289 0.64683,1.4005125 0.0779,39.5828884 0.0779,39.582898 z M 70.579974,38.645994 h -1.33011 l -0.64109,-0.682404 -0.64108,-0.682404 v -1.247489 -1.247489 l 0.72371,-0.723709 0.72371,-0.723709 h 1.20618 1.20619 l 0.7237,0.723709 0.72371,0.723709 v 1.288808 1.288808 l -0.6824,0.641084 -0.6824,0.641086 z m 29.23093,-10.03767 h -2.21132 l -1.17938,-0.538707 -1.17938,-0.538708 -1.2307,-1.340438 -1.23072,-1.340437 -0.31558,-1.136537 -0.31558,-1.136538 10e-4,-1.769069 0.001,-1.769068 0.69695,-1.474223 0.69694,-1.474223 0.8481,-0.793442 0.84812,-0.793441 1.3268,-0.600596 1.3268,-0.600594 h 1.91648 1.916486 l 1.32679,0.600594 1.32681,0.600596 0.84811,0.793441 0.84811,0.793442 0.69694,1.474223 0.69694,1.474223 0.001,1.769068 0.001,1.769069 -0.31558,1.136538 -0.31559,1.136537 -1.2307,1.340437 -1.23071,1.340438 -1.17938,0.538708 -1.17938,0.538707 z m -39.56824,-10.611906 -1.26773,-0.01048 -0.70466,-0.39056 -0.70466,-0.390563 -0.39056,-0.704657 -0.39056,-0.70466 -0.0105,-1.429995 -0.0105,-1.429997 1.00247,-1.002471 1.00247,-1.002472 h 1.53319 1.53319 l 1.00248,1.002472 1.00247,1.002471 v 1.342413 1.342411 l -0.35225,0.773097 -0.35225,0.773098 -0.81248,0.420155 -0.8125,0.420155 z M 122.80877,9.7512242 h -1.83843 L 119.82564,8.6065334 118.68096,7.461842 V 5.6537574 3.8456718 l 1.00929,-1.1013377 1.0093,-1.1013375 h 2.10922 2.10923 l 1.0093,1.1013375 1.00931,1.1013377 V 5.6537574 7.461842 l -1.14469,1.1446914 -1.14469,1.1446908 z"
       id="path1" /></g></svg>
