<?xml version="1.0" encoding="UTF-8" standalone="no"?>
<!-- Created with Inkscape (http://www.inkscape.org/) -->

<svg
   width="960"
   height="960"
   viewBox="0 0 254 254"
   version="1.1"
   id="svg1"
   xml:space="preserve"
   xmlns:xlink="http://www.w3.org/1999/xlink"
   xmlns="http://www.w3.org/2000/svg"
   xmlns:svg="http://www.w3.org/2000/svg"><defs
     id="defs1"><linearGradient
       id="linearGradient1"><stop
         style="stop-color:#018e71;stop-opacity:1;"
         offset="0"
         id="stop1" /><stop
         style="stop-color:#018e71;stop-opacity:1;"
         offset="0.24999997"
         id="stop6" /><stop
         style="stop-color:#99e9c2;stop-opacity:1;"
         offset="0.25000003"
         id="stop3" /><stop
         style="stop-color:#99e9c2;stop-opacity:1;"
         offset="0.25000003"
         id="stop9" /><stop
         style="stop-color:#99e9c2;stop-opacity:1;"
         offset="0.5"
         id="stop7" /><stop
         style="stop-color:#ffffff;stop-opacity:1;"
         offset="0.5"
         id="stop8" /><stop
         style="stop-color:#ffffff;stop-opacity:1;"
         offset="0.5"
         id="stop4" /><stop
         style="stop-color:#ffffff;stop-opacity:1;"
         offset="0.75164998"
         id="stop10" /><stop
         style="stop-color:#7cafe3;stop-opacity:1;"
         offset="0.75164998"
         id="stop5" /><stop
         style="stop-color:#7cafe3;stop-opacity:1;"
         offset="1"
         id="stop11" /><stop
         style="stop-color:#7cafe3;stop-opacity:1;"
         offset="1"
         id="stop12" /><stop
         style="stop-color:#3b1379;stop-opacity:1;"
         offset="1"
         id="stop2" /></linearGradient><linearGradient
       xlink:href="#linearGradient1"
       id="linearGradient2-9"
       x1="80.585442"
       y1="54.097355"
       x2="167.04878"
       y2="192.46762"
       gradientUnits="userSpaceOnUse"
       gradientTransform="translate(8.9842537,14.42466)" /></defs><g
     id="layer1"><path
       style="fill:url(#linearGradient2-9);stroke-width:1.11438"
       d="m 145.36707,238.4165 -3.83297,0.0658 -1.11026,-0.27542 -1.11024,-0.2754 -1.1011,-0.56753 -1.10107,-0.5675 -0.94229,-0.98409 -0.94229,-0.98407 -0.7826,-1.71264 -0.78258,-1.71264 -0.15597,-1.71991 -0.15596,-1.71989 3.71475,-0.21426 3.71473,-0.21426 0.45116,0.17312 0.45113,0.17311 v 0.6281 0.62809 l 0.49239,1.03762 0.49238,1.03761 0.90812,0.55378 0.90814,0.55378 0.80617,0.001 0.80617,0.001 0.92605,-0.82742 0.92604,-0.82743 v -0.85135 -0.85133 l -0.91463,-0.8172 -0.91461,-0.81722 -1.70213,-0.46576 -1.70213,-0.46575 -2.01335,-0.75897 -2.01335,-0.75896 -1.22244,-0.93239 -1.22244,-0.9324 -0.875,-1.24496 -0.87498,-1.24496 -0.12547,-2.62387 -0.12544,-2.62387 0.72564,-1.57651 0.72563,-1.57653 0.97454,-0.94637 0.97456,-0.94639 1.35667,-0.67192 1.35668,-0.67193 4.27524,-0.003 4.27525,-0.003 1.37323,0.52994 1.37324,0.52994 1.33183,1.42387 1.33186,1.42385 0.46451,1.56414 0.4645,1.56413 v 0.94936 0.94936 l -3.31701,0.20696 -3.31699,0.20698 -0.71969,-0.10421 -0.71969,-0.10418 -0.23029,-0.89377 -0.23028,-0.89376 -0.60613,-0.65061 -0.60612,-0.65061 -0.78224,-0.19631 -0.78222,-0.19632 -0.75755,0.42307 -0.75754,0.4231 -0.0909,0.92945 -0.0909,0.92946 0.62256,0.3332 0.62258,0.33319 3.09527,0.86912 3.09526,0.86914 1.69798,0.85715 1.69799,0.85714 1.0463,1.15812 1.04629,1.15814 0.51963,1.3606 0.51961,1.36059 -0.12908,2.73881 -0.1291,2.73879 -0.76564,1.47422 -0.76564,1.47423 -1.13114,1.09113 -1.13114,1.0911 -1.47423,0.67012 -1.47422,0.67013 z m 26.68343,0.0169 -3.68555,0.0764 -1.82788,-0.59372 -1.82789,-0.59373 -1.26799,-0.95893 -1.26797,-0.95895 -1.19261,-1.77197 -1.19261,-1.77198 -0.57645,-1.75934 -0.57647,-1.75934 v -4.71753 -4.7175 l 0.56659,-1.72797 0.56659,-1.72795 1.11317,-1.72227 1.11315,-1.72229 1.41612,-1.04654 1.41612,-1.04655 1.99944,-0.62081 1.99945,-0.62082 3.30777,0.12863 3.30775,0.1286 1.6811,0.65588 1.68108,0.65588 1.43758,1.29249 1.43756,1.2925 0.92808,1.74124 0.92807,1.74126 0.44529,1.88905 0.44527,1.88904 v 3.53813 3.53814 l -0.44527,1.88906 -0.44529,1.88905 -0.91855,1.72342 -0.91858,1.7234 -1.30747,1.20519 -1.30746,1.20517 -1.67328,0.77972 -1.6733,0.77969 z m -0.29484,-7.13517 0.44226,-0.10865 0.73712,-0.20395 0.73711,-0.20394 0.80294,-0.7516 0.80294,-0.75159 0.47906,-1.44232 0.47906,-1.4423 0.0138,-2.71161 0.0138,-2.71164 -0.39676,-1.29484 -0.39675,-1.29485 -0.90251,-0.95692 -0.90251,-0.95696 -1.10222,-0.30434 -1.10223,-0.30433 -1.10221,0.30433 -1.10223,0.30434 -0.91555,0.97078 -0.91555,0.97077 -0.38521,1.37583 -0.3852,1.37584 v 2.46395 2.46398 l 0.37035,1.32282 0.37037,1.32282 0.77952,0.92365 0.77954,0.92366 1.17939,0.41286 1.17936,0.41286 z m -101.652796,6.55586 -10.97785,0.0774 0.005,-0.51958 0.005,-0.51957 12.47105,-38.47722 12.47104,-38.47724 h 11.889423 11.889483 l 12.48444,38.47724 12.48445,38.47722 0.006,0.51598 0.006,0.51599 h -11.18319 -11.18316 l -0.44197,-1.54794 -0.44195,-1.54793 -1.24765,-4.79466 -1.24763,-4.79463 -11.366173,0.0772 -11.366173,0.0771 -1.63879,6.19174 -1.63879,6.19173 z m 25.668933,-30.00408 h 6.764173 l -0.17595,-0.66341 -0.17596,-0.6634 -3.163533,-12.19806 -3.16353,-12.19806 -0.1005,0.30149 -0.10049,0.30148 -3.32418,12.55997 -3.32419,12.55999 z m 87.503863,-5.60205 h -11.47787 l -0.46334,-0.46333 -0.46332,-0.46333 v -6.65301 -6.65301 l 4.49638,0.14538 4.49639,0.14537 2.65359,-0.70688 2.65361,-0.70687 1.20166,-0.57921 1.20165,-0.57924 1.15711,-0.9867 1.15709,-0.98671 1.438,-0.63354 1.43798,-0.63352 h 0.80175 0.80174 l 0.19274,3.58443 0.19274,3.58442 v 6.29287 6.29288 z m -23.75605,-15.39738 -2.35875,-0.05 -2.06392,-0.0884 -2.06389,-0.0884 -4.71754,-0.45592 -4.71751,-0.45591 -4.12783,-0.72755 -4.12781,-0.72753 -3.2433,-0.99921 -3.24329,-0.99923 -0.0943,-0.62019 -0.0942,-0.62021 0.38912,-0.37075 0.38913,-0.37075 1.47423,-0.37391 1.47422,-0.3739 1.89868,-0.9225 1.89868,-0.92247 3.55594,-3.47202 3.55596,-3.47202 -5.74948,0.0454 -5.74946,0.0454 -4.78482,-0.66021 -4.7848,-0.66019 -3.56814,-1.02702 -3.56814,-1.02702 h -0.12383 -0.12385 l 0.002,-0.6634 0.002,-0.66341 0.95624,-0.623 0.95622,-0.62298 3.68557,-1.91675 3.68555,-1.91676 2.80102,-1.69693 2.80103,-1.69693 3.24329,-2.1412 3.2433,-2.14122 3.24328,-2.44147 3.24329,-2.44149 2.03981,-1.79504 2.03979,-1.79505 9.60656,-0.008 9.60656,-0.008 1.18191,-0.23989 1.18191,-0.23987 3.2174,13.368 3.2174,13.36803 0.25836,0.95825 0.25835,0.95824 h 0.22535 0.22534 l 8.81146,-9.58245 8.81148,-9.58245 h 0.67919 0.67922 v 10.90987 10.90986 l -1.80001,1.32507 -1.8,1.32509 -2.47034,1.49216 -2.47034,1.49216 -2.43737,1.13026 -2.43738,1.13028 -2.33633,0.79543 -2.33633,0.79546 -2.97087,0.57717 -2.97087,0.57718 -4.42267,0.27361 -4.42267,0.27362 z m 17.1961,-19.69312 -0.78942,0.004 -0.5489,-0.69782 -0.54892,-0.69782 -3.64022,-15.73977 -3.64022,-15.73979 -0.0564,-0.0717 -0.0565,-0.0717 -10.88667,1.75038 -10.8867,1.75035 -3.09586,0.76891 -3.09588,0.76891 -2.94844,0.44832 -2.94844,0.44832 -5.60205,0.007 -5.60206,0.007 -2.94844,-0.45446 -2.94845,-0.45444 -1.54793,-0.33504 -1.54791,-0.33505 v -0.67638 -0.67637 l 1.44746,-0.62268 1.44749,-0.6227 2.01692,-0.71368 2.01695,-0.71366 1.03197,-0.21058 1.03194,-0.21058 3.24329,-1.11205 3.2433,-1.11202 1.17938,-0.5051 1.17938,-0.50513 4.42267,-2.20973 4.42267,-2.20973 2.50618,-1.49028 2.50619,-1.49026 3.36779,-2.38611 3.36781,-2.3861 2.0135,-1.89153 2.0135,-1.89152 -0.11066,-0.11065 -0.11065,-0.11069 -4.53355,0.76659 -4.53355,0.76658 -4.76074,1.00241 -4.76072,1.00242 -3.64234,0.91478 -3.64234,0.91478 -6.634,1.91767 -6.63401,1.91768 -3.3907,1.13147 -3.3907,1.1315 -2.80104,1.03096 -2.80102,1.03096 -3.53813,1.37963 -3.538143,1.37964 -6.48658,3.19943 -6.486583,3.19941 -3.27684,1.8932 -3.27684,1.89319 -4.68397,3.11693 -4.68397,3.11693 -1.18505,0.8336 -1.18506,0.83359 -3.13895,2.43246 -3.13894,2.43249 h -0.90949 -0.90949 l 0.0189,-5.82319 0.0188,-5.82319 4.77237,-3.1387 4.77238,-3.1387 4.86494,-2.73254 4.86494,-2.73254 4.12782,-1.9738 4.12783,-1.97379 0.68562,-0.21639 0.68562,-0.21639 -0.12007,-0.12007 -0.12006,-0.12008 -3.14855,0.8841 -3.14855,0.88411 h -0.43917 -0.43916 l 0.007,-0.6634 0.007,-0.66341 1.54098,-0.7026 1.54099,-0.70261 2.80102,-1.27428 2.801033,-1.27428 2.47296,-0.70813 2.47297,-0.70814 -4.51521,-2.25362 -4.515203,-2.25362 h -0.39023 -0.39023 v -0.73713 -0.73709 h 0.57878 0.57877 l 1.41143,0.55273 1.41142,0.55275 3.685563,1.05142 3.68556,1.0514 2.1193,0.57927 2.1193,0.57929 -2.84263,-3.73138 -2.84263,-3.73141 -2.15141,-2.69674 -2.1514,-2.69678 v -0.62014 -0.62024 h 0.63557 0.63557 l 0.91237,0.69577 0.91236,0.69576 1.91649,0.96715 1.91649,0.96716 2.76229,1.59454 2.762283,1.59455 0.0713,-0.0879 0.0713,-0.0879 -0.25849,-2.50618 -0.2585,-2.50619 -0.879703,-7.9715 -0.87969,-7.97151 v -0.79992 -0.80013 l 0.6634,0.007 0.663403,0.007 2.6536,4.63701 2.6536,4.637 3.83297,5.70942 3.83298,5.70941 0.58969,0.83538 0.58969,0.83539 0.47179,0.12376 0.47178,0.12375 1.52954,-4.75206 1.52952,-4.75207 0.72333,-3.24329 0.72332,-3.24329 0.002,-0.51598 0.002,-0.51598 h 0.68331 0.68331 l -0.11133,5.67576 -0.11133,5.67577 0.23939,1.76384 0.2394,1.76385 3.07818,-3.82776 3.07819,-3.82776 2.30214,-3.51686 2.30214,-3.51686 v -0.24238 -0.24241 h 0.73712 0.73711 v 0.54845 0.54846 l -1.21397,2.62112 -1.21395,2.62113 -1.56313,4.01511 -1.56314,4.01511 -0.98006,1.88179 -0.98006,1.88177 -0.10041,0.22113 -0.1004,0.22114 0.39312,-0.002 0.39313,-0.002 0.73712,-1.08927 0.7371,-1.08927 3.39072,-3.55921 3.39071,-3.55921 1.16626,-1.54124 1.16625,-1.54125 h 0.67652 0.67652 v 0.61201 0.612 l -1.78556,3.5023 -1.78559,3.50229 -1.28574,1.43008 -1.28576,1.43006 2.85019,-0.52166 2.85021,-0.52167 4.42267,-0.61853 4.42267,-0.61855 4.12783,-0.415 4.12782,-0.415 3.3907,-0.0131 3.39071,-0.0131 2.28505,-2.64289 2.28505,-2.6429 v -0.24692 -0.24693 l 1.84278,-2.05089 1.84277,-2.05087 1.30279,-2.05745 1.30278,-2.05744 2.17252,-3.31246 2.17254,-3.31245 0.55941,-0.29939 0.55944,-0.2994 h 2.62158 2.62159 l 0.60333,0.6634 0.60333,0.66341 0.84157,1.3268 0.84158,1.3268 3.50882,3.83298 3.50883,3.83298 0.55229,0.48953 0.55229,0.48953 v 24.09754 24.0975 l -0.4327,0.32737 -0.43268,0.32733 -3.85441,5.15979 -3.85443,5.15977 -4.33709,4.05013 -4.3371,4.05012 z m 17.16682,-70.75879 h -0.87942 l -3.33369,-3.90669 -3.33369,-3.90669 -2.3148,-2.72732 -2.3148,-2.72731 h -0.27373 -0.27373 l -5.51233,5.04759 -5.51231,5.04759 -0.68261,0.25962 -0.68259,0.25961 h -0.57049 -0.57051 v -0.56135 -0.56136 l 0.9922,-1.75537 0.99219,-1.75536 1.18465,-2.4745 1.18464,-2.47449 1.47742,-3.98041 1.47742,-3.9804 0.2187,-0.72674 0.21871,-0.72674 -1.46656,1.7587 -1.46655,1.75869 -2.59831,2.45603 -2.5983,2.45602 -2.09314,1.48414 -2.09315,1.48414 -4.42267,2.18298 -4.42267,2.18297 -1.69747,0.30507 -1.69748,0.30507 -1.5458,-0.0891 -1.54582,-0.089 -0.0917,-0.79397 -0.0917,-0.79396 0.9762,-0.49677 0.97621,-0.49678 2.79099,-1.92304 2.79103,-1.92304 2.23191,-1.84651 2.2319,-1.84652 2.93788,-3.33478 2.93788,-3.33479 1.31993,-1.6181 1.31995,-1.6181 2.47073,-3.6971 2.47073,-3.6971 2.31651,-4.66909 2.31652,-4.66909 1.75054,-4.47109 1.75055,-4.4711 1.10126,-3.53814 1.10124,-3.53813 0.38063,-0.73711 0.38063,-0.73711 1.78711,-5.63622 1.78713,-5.63621 0.9098,-2.17716 0.90978,-2.17717 0.9785,-2.80103 0.97847,-2.80102 0.21084,-0.51598 0.21085,-0.51598 h 0.72214 0.72215 l 0.64681,1.40051 0.64683,1.40052 0.0779,39.58289 0.0779,39.58289 z M 84.735184,53.05647 h -1.33011 l -0.64109,-0.6824 -0.64108,-0.68241 v -1.24749 -1.24748 l 0.72371,-0.72371 0.72371,-0.72371 h 1.20618 1.20619 l 0.7237,0.72371 0.72371,0.72371 v 1.2888 1.28881 l -0.6824,0.64109 -0.6824,0.64108 z M 113.96612,43.0188 h -2.21132 l -1.17938,-0.53871 -1.17938,-0.5387 -1.2307,-1.34044 -1.23072,-1.34044 -0.31558,-1.13654 -0.31558,-1.13653 0.001,-1.76907 10e-4,-1.76907 0.69695,-1.47422 0.69694,-1.47423 0.8481,-0.79344 0.84812,-0.79344 1.3268,-0.6006 1.3268,-0.60059 h 1.91648 1.91649 l 1.32679,0.60059 1.32681,0.6006 0.84811,0.79344 0.84811,0.79344 0.69694,1.47423 0.69694,1.47422 0.001,1.76907 0.001,1.76907 -0.31558,1.13653 -0.31559,1.13654 -1.2307,1.34044 -1.23071,1.34044 -1.17938,0.5387 -1.17938,0.53871 z m -39.568246,-10.61191 -1.26773,-0.0105 -0.70466,-0.39056 -0.70466,-0.39056 -0.39056,-0.70466 -0.39056,-0.70466 -0.0105,-1.42999 -0.0105,-1.43 1.00247,-1.00247 1.00247,-1.00247 h 1.53319 1.53319 l 1.00248,1.00247 1.00247,1.00247 v 1.34242 1.34241 l -0.35225,0.77309 -0.35225,0.7731 -0.81248,0.42016 -0.8125,0.42015 z M 136.96399,24.1617 h -1.83843 l -1.1447,-1.14469 -1.14468,-1.14469 v -1.80809 -1.80808 l 1.00929,-1.10134 1.0093,-1.10134 h 2.10922 2.10923 l 1.0093,1.10134 1.00931,1.10134 v 1.80808 1.80809 l -1.14469,1.14469 -1.14469,1.14469 z"
       id="path1" /></g></svg>
